<svg width="24" height="24" viewBox="0 0 24 24" fill="none" xmlns="http://www.w3.org/2000/svg">
<g clip-path="url(#clip0_22_333)">
<path d="M20.6659 13.3467C19.8286 13.351 19.1009 13.5527 18.4916 13.8508C18.268 13.408 18.0444 13.0135 18.005 12.7242C17.9611 12.3867 17.9086 12.1806 17.9611 11.7773C18.0138 11.374 18.2505 10.7997 18.2461 10.7559C18.2417 10.7121 18.1934 10.506 17.7113 10.5017C17.2291 10.4973 16.8126 10.5937 16.7644 10.7208C16.7162 10.8479 16.6241 11.1373 16.5627 11.4353C16.4794 11.8737 15.5984 13.4386 15.0943 14.2584C14.932 13.9385 14.7918 13.6579 14.761 13.4343C14.7172 13.0968 14.6646 12.8907 14.7172 12.4874C14.7699 12.0841 15.0066 11.5099 15.0022 11.466C14.9978 11.4222 14.9495 11.2161 14.4674 11.2118C13.9851 11.2074 13.5686 11.3039 13.5205 11.431C13.4723 11.5582 13.4196 11.8562 13.3188 12.1455C13.218 12.4349 12.0475 15.0476 11.7407 15.7226C11.6167 15.9958 11.4866 16.2662 11.3506 16.5336C11.3506 16.5336 11.3461 16.5468 11.333 16.5687C11.2902 16.6525 11.2464 16.7358 11.2016 16.8186V16.8229C11.1358 16.9413 11.0656 17.0509 11.0306 17.0509C11.0042 17.0509 10.956 16.7353 11.0393 16.3056C11.2146 15.3983 11.6311 13.9867 11.6268 13.9385C11.6268 13.9122 11.7056 13.6667 11.355 13.5395C11.013 13.4124 10.8903 13.6228 10.8596 13.6228C10.8289 13.6228 10.8069 13.6973 10.8069 13.6973C10.8069 13.6973 11.1884 12.1105 10.0793 12.1105C9.3867 12.1105 8.431 12.8688 7.95757 13.5527C7.41938 13.8455 6.88164 14.1393 6.34436 14.4338C6.08584 14.5785 5.81838 14.7232 5.5685 14.859C5.55092 14.8415 5.53344 14.8195 5.51586 14.802C4.17443 13.3686 1.69333 12.3559 1.79853 10.4315C1.83801 9.73014 2.07906 7.88896 6.56359 5.65332C10.2546 3.83404 13.1917 4.33812 13.7002 5.45599C14.4279 7.05171 12.1265 10.0151 8.31264 10.4446C6.85728 10.6069 6.09449 10.0457 5.90167 9.83533C5.70002 9.6161 5.66928 9.60294 5.59473 9.64684C5.47205 9.71265 5.55092 9.90988 5.59473 10.0238C5.70877 10.3218 6.17778 10.8479 6.97122 11.1066C7.67263 11.3345 9.37786 11.4617 11.4426 10.6638C13.7528 9.76953 15.5589 7.28401 15.0285 5.20179C14.498 3.08883 10.9911 2.39184 7.67263 3.57101C5.70002 4.2725 3.56074 5.37712 2.02209 6.81499C0.194069 8.52456 -0.0952924 10.0107 0.0230657 10.6332C0.448365 12.8425 3.49503 14.2804 4.71367 15.3456C4.65229 15.3807 4.59522 15.4114 4.54709 15.4377C3.93772 15.7402 1.61437 16.9544 1.03574 18.2388C0.378234 19.6942 1.14103 20.7376 1.64511 20.8778C3.21008 21.3118 4.81887 20.5316 5.68244 19.2427C6.54601 17.9539 6.44082 16.2793 6.04194 15.5122C6.03752 15.5035 6.03319 15.4946 6.02436 15.4859C6.1822 15.3938 6.34436 15.2974 6.50221 15.2053C6.79231 15.0339 7.08609 14.8687 7.38336 14.7099C7.23426 15.1176 7.12464 15.6042 7.07209 16.3056C7.00629 17.1298 7.34378 18.1994 7.78656 18.6202C7.98389 18.8044 8.21619 18.8087 8.36529 18.8087C8.88253 18.8087 9.11492 18.3791 9.37354 17.8706C9.68913 17.2482 9.97407 16.5249 9.97407 16.5249C9.97407 16.5249 9.619 18.48 10.5834 18.48C10.9341 18.48 11.2892 18.024 11.447 17.7917V17.7961C11.447 17.7961 11.4558 17.7829 11.4733 17.7523C11.5084 17.6953 11.5303 17.6601 11.5303 17.6601V17.6515C11.6706 17.4059 11.9863 16.8492 12.4553 15.9242C13.0602 14.7319 13.6433 13.2415 13.6433 13.2415C13.6433 13.2415 13.6959 13.6053 13.8756 14.2103C13.9809 14.5653 14.1999 14.9555 14.3753 15.3324C14.2351 15.5298 14.1473 15.6393 14.1473 15.6393L14.1518 15.6437C14.0377 15.7927 13.915 15.9549 13.7791 16.1128C13.3013 16.6826 12.7315 17.3359 12.6525 17.5243C12.5604 17.7478 12.5824 17.9101 12.7578 18.0416C12.8849 18.1381 13.1128 18.1511 13.3452 18.1381C13.7748 18.1073 14.0772 18.0021 14.2262 17.9364C14.4586 17.8531 14.7304 17.7259 14.9846 17.5374C15.4537 17.1911 15.7386 16.6958 15.7123 16.0427C15.6992 15.6832 15.5808 15.3237 15.4361 14.9861C15.48 14.9248 15.5194 14.8634 15.5633 14.802C16.3041 13.7192 16.8784 12.5312 16.8784 12.5312C16.8784 12.5312 16.9311 12.8951 17.1107 13.5001C17.1984 13.807 17.3782 14.1401 17.5359 14.4645C16.8389 15.03 16.4093 15.6875 16.2559 16.1171C15.9798 16.915 16.1945 17.2744 16.6022 17.3577C16.7863 17.3972 17.0493 17.3095 17.2422 17.2262C17.4877 17.1473 17.7771 17.0115 18.0533 16.8097C18.5224 16.4635 18.9738 15.9812 18.9475 15.3281C18.9343 15.03 18.8554 14.7362 18.7458 14.4513C19.3376 14.2059 20.1004 14.07 21.0735 14.1839C23.1602 14.4294 23.5723 15.7313 23.4933 16.2794C23.4144 16.8273 22.9761 17.1254 22.8315 17.2174C22.6867 17.3096 22.6386 17.3402 22.6517 17.4059C22.6692 17.5024 22.7394 17.4981 22.8621 17.4805C23.0331 17.4498 23.9581 17.0377 23.9975 16.0294C24.0633 14.7407 22.8358 13.3335 20.6659 13.3467V13.3467ZM4.56899 18.7737C3.87633 19.5276 2.91198 19.8126 2.49552 19.5715C2.04841 19.3128 2.22374 18.1994 3.07415 17.4016C3.59139 16.915 4.25773 16.4634 4.70051 16.1873C4.80129 16.1259 4.95039 16.0383 5.13014 15.9287C5.16078 15.9111 5.17836 15.9023 5.17836 15.9023L5.28356 15.8365C5.59473 16.9763 5.29672 17.9802 4.56899 18.7737V18.7737ZM9.61026 15.3456C9.36912 15.9331 8.86504 17.4367 8.5582 17.3534C8.29516 17.2832 8.1329 16.1435 8.50555 15.0169C8.69404 14.4513 9.09292 13.7762 9.32531 13.5133C9.70229 13.0924 10.1188 12.952 10.2195 13.1231C10.3467 13.3467 9.75926 14.9774 9.61026 15.3456V15.3456ZM13.7704 17.3358C13.6695 17.3884 13.5731 17.4235 13.5292 17.3972C13.4986 17.3796 13.5731 17.3095 13.5731 17.3095C13.5731 17.3095 14.0948 16.7484 14.3008 16.4941C14.4192 16.3451 14.5594 16.1698 14.7085 15.9725V16.0294C14.7085 16.7002 14.0596 17.1517 13.7703 17.3358H13.7704ZM16.9792 16.6037C16.9046 16.5511 16.9178 16.3758 17.1677 15.8278C17.2641 15.613 17.492 15.2536 17.8823 14.9072C17.9261 15.0475 17.9568 15.1834 17.9524 15.3105C17.948 16.1566 17.3431 16.4722 16.9792 16.6037Z" fill="#CD6799"/>
</g>
<defs>
<clipPath id="clip0_22_333">
<rect width="24" height="24" fill="white"/>
</clipPath>
</defs>
</svg>
