<svg width="24" height="24" viewBox="0 0 24 24" fill="none" xmlns="http://www.w3.org/2000/svg">
<path d="M12 1L5.23641 1.71512L0 8.7445L12 22.7183L24 8.74441L18.7637 1.71512L12 1Z" fill="#FDB300"/>
<path d="M0 8.7445L12 22.7183L4.86056 8.7445H0Z" fill="#EB6C00"/>
<path d="M19.1393 8.7445L12 22.7183L24 8.7445H19.1393Z" fill="#EB6C00"/>
<path d="M4.86057 8.7445L12 22.7183L19.1394 8.7445H4.86057Z" fill="#FDAD00"/>
<path d="M5.23641 1.71512L4.86047 8.7445L12 1L5.23641 1.71512Z" fill="#FDD231"/>
<path d="M19.1393 8.7445L18.7636 1.71512L12 1L19.1393 8.7445Z" fill="#FDD231"/>
<path d="M19.1394 8.7445H24L18.7637 1.71513L19.1394 8.7445Z" fill="#FDAD00"/>
<path d="M0 8.7445H4.86056L5.23641 1.71513L0 8.7445Z" fill="#FDAD00"/>
<path d="M12 1L4.86057 8.74441H19.1394L12 1Z" fill="#FEEEB7"/>
</svg>
