<svg width="24" height="24" viewBox="0 0 24 24" fill="none" xmlns="http://www.w3.org/2000/svg">
<path d="M2 2H22V22H2V2ZM20.3617 17.23C20.2158 16.3175 19.6217 15.5508 17.8592 14.8358C17.2458 14.5483 16.5642 14.3483 16.3617 13.8858C16.2858 13.6108 16.2742 13.4608 16.3233 13.2983C16.4483 12.76 17.0858 12.5983 17.5858 12.7483C17.9108 12.8483 18.2108 13.0983 18.3992 13.4983C19.2608 12.935 19.2608 12.935 19.8617 12.5608C19.6367 12.2108 19.525 12.06 19.3733 11.9108C18.8483 11.3233 18.1492 11.0233 17.0117 11.0492L16.4242 11.1233C15.8608 11.2608 15.3242 11.5608 14.9992 11.9608C14.0492 13.0367 14.3233 14.9117 15.4733 15.6867C16.6108 16.5367 18.2742 16.7233 18.4867 17.5242C18.6867 18.4992 17.7617 18.8117 16.8483 18.6992C16.1725 18.5492 15.7983 18.2108 15.3858 17.5858L13.8608 18.4617C14.0358 18.8617 14.2358 19.0358 14.5358 19.3858C15.9858 20.8492 19.6108 20.7742 20.2617 18.5492C20.2858 18.4742 20.4617 17.9617 20.3233 17.1742L20.3617 17.23ZM12.8758 11.1925H11.0025C11.0025 12.8075 10.995 14.4125 10.995 16.03C10.995 17.0567 11.0475 17.9992 10.88 18.2892C10.605 18.8633 9.89667 18.79 9.575 18.6892C9.245 18.5258 9.0775 18.3008 8.88333 17.9767C8.83083 17.8892 8.79167 17.8133 8.7775 17.8133L7.25667 18.7508C7.51083 19.2758 7.88167 19.7275 8.36 20.015C9.0725 20.44 10.03 20.5775 11.0325 20.3525C11.685 20.1642 12.2475 19.7767 12.5417 19.1767C12.9667 18.4017 12.8767 17.4517 12.8725 16.3883C12.8825 14.6767 12.8725 12.9642 12.8725 11.2392L12.8758 11.1925Z" fill="url(#paint0_linear_263_79)"/>
<defs>
<linearGradient id="paint0_linear_263_79" x1="2" y1="2" x2="22" y2="22" gradientUnits="userSpaceOnUse">
<stop stop-color="#00C6FF"/>
<stop offset="0.9999" stop-color="#9634EE"/>
<stop offset="1" stop-color="#9733EE"/>
<stop offset="1" stop-color="#9535EE"/>
</linearGradient>
</defs>
</svg>
