<svg width="24" height="24" viewBox="0 0 24 24" fill="none" xmlns="http://www.w3.org/2000/svg">
<path d="M11.4996 23.9394L4.5734 22.0166L3.02989 4.70467H19.9901L18.445 22.0139L11.4996 23.9394V23.9394Z" fill="#264DE4"/>
<path d="M17.1222 20.9117L18.4425 6.12013H11.51V22.4676L17.1222 20.9117V20.9117Z" fill="#2965F1"/>
<path d="M6.56833 12.5409L6.7586 14.6641H11.51V12.5409H6.56833Z" fill="#EBEBEB"/>
<path d="M6.18593 8.24344L6.37893 10.3667H11.51V8.24344H6.18593V8.24344Z" fill="#EBEBEB"/>
<path d="M11.51 18.0552L11.5007 18.0576L9.13606 17.4191L8.98488 15.7258H6.85347L7.15091 19.0596L11.5002 20.2669L11.51 20.2642V18.0552Z" fill="#EBEBEB"/>
<path d="M7.02141 0H9.59293V1.07541H8.09682V2.15083H9.59306V3.22617H7.02141V0Z" fill="white"/>
<path d="M10.1073 0H12.6789V0.935136H11.1827V1.12215H12.6789V3.27297H10.1074V2.29097H11.6035V2.10396H10.1072V0H10.1073Z" fill="white"/>
<path d="M13.1933 0H15.7648V0.935136H14.2687V1.12215H15.7648V3.27297H13.1933V2.29097H14.6894V2.10396H13.1933V0H13.1933Z" fill="white"/>
<path d="M16.4381 12.5409L16.8214 8.24344H11.5027V10.3667H14.4945L14.3013 12.5409H11.5027V14.6641H14.1172L13.8707 17.4178L11.5026 18.057V20.2659L15.8554 19.0596L15.8873 18.7009L16.3863 13.1111L16.4381 12.5409V12.5409Z" fill="white"/>
</svg>
