<svg width="24" height="24" viewBox="0 0 24 24" fill="none" xmlns="http://www.w3.org/2000/svg">
<path d="M19.9901 4.70467L18.445 22.0139L11.4996 23.9394L4.5734 22.0166L3.02989 4.70467H19.9901Z" fill="#E44D26"/>
<path d="M11.51 22.4676L17.1222 20.9117L18.4425 6.12013H11.51V22.4676Z" fill="#F16529"/>
<path d="M8.50635 10.3667H11.51V8.24344H6.18593L6.23672 8.81306L6.7586 14.6641H11.51V12.5409H8.70041L8.50635 10.3667V10.3667Z" fill="#EBEBEB"/>
<path d="M8.98488 15.7258H6.85347L7.15091 19.0596L11.5002 20.2669L11.51 20.2642V18.0552L11.5007 18.0576L9.13606 17.4191L8.98488 15.7258V15.7258Z" fill="#EBEBEB"/>
<path d="M4.60783 0H5.68684V1.06604H6.67389V0H7.75296V3.22823H6.67396V2.14724H5.6869V3.22823H4.6079V0H4.60783Z" fill="white"/>
<path d="M9.17182 1.07056H8.22206V0H11.2014V1.07056H10.251V3.22823H9.17202V1.07056H9.17196H9.17182Z" fill="white"/>
<path d="M11.6742 0H12.7993L13.4914 1.13432L14.1828 0H15.3083V3.22823H14.2337V1.62814L13.4914 2.77596H13.4727L12.7299 1.62814V3.22823H11.6742V0Z" fill="white"/>
<path d="M15.8453 0H16.9246V2.1612H18.442V3.22823H15.8452V0H15.8453Z" fill="white"/>
<path d="M11.5027 14.6641H14.1172L13.8707 17.4178L11.5026 18.057V20.2659L15.8554 19.0596L15.8873 18.7008L16.3863 13.111L16.4381 12.5409H11.5027V14.6641Z" fill="white"/>
<path d="M11.5027 10.3615V10.3667H16.6313L16.6739 9.88947L16.7707 8.81306L16.8214 8.24344H11.5027V10.3616V10.3615Z" fill="white"/>
</svg>
