<svg width="24" height="24" viewBox="0 0 24 24" fill="none" xmlns="http://www.w3.org/2000/svg">
<path d="M1.00201 1.02593H23.0014V22.9741H1.00201V1.02593Z" fill="#1C0A00"/>
<path d="M1.002 1.02593H23.0014V22.9741H1.002V1.02593ZM0 24H24V0H0V24ZM15.72 8.55385C15.72 8.47209 15.75 8.43077 15.84 8.43077H17.4103C17.49 8.43077 17.5303 8.46154 17.5303 8.55385V16.6462C17.5303 16.7279 17.5106 16.7692 17.4103 16.7692H15.8614C15.7611 16.7692 15.7311 16.7182 15.7311 16.6356V8.55385H15.7209H15.72ZM15.6103 6.22593C15.6103 5.94848 15.7177 5.68238 15.909 5.48619C16.1003 5.29 16.3598 5.17978 16.6303 5.17978C16.9008 5.17978 17.1602 5.29 17.3515 5.48619C17.5428 5.68238 17.6503 5.94848 17.6503 6.22593C17.6602 6.36767 17.6399 6.50992 17.5909 6.64282C17.5418 6.77572 17.4652 6.8961 17.3663 6.99561C17.2674 7.09512 17.1486 7.17139 17.0181 7.21913C16.8876 7.26687 16.7485 7.28494 16.6106 7.27209C16.4754 7.28079 16.34 7.25951 16.2135 7.2097C16.0871 7.15989 15.9726 7.08272 15.8778 6.98345C15.783 6.88418 15.7103 6.76513 15.6644 6.63441C15.6185 6.50369 15.6007 6.36437 15.612 6.22593H15.6103ZM11.1103 11.9288C10.83 10.7859 10.1674 8.30857 9.92057 7.10857H9.90086C9.69086 8.30857 9.16114 10.3393 8.74114 11.9288H11.1103ZM8.33057 13.5903L7.54029 16.6673C7.52057 16.749 7.49057 16.7701 7.39029 16.7701H5.922C5.82171 16.7701 5.802 16.7393 5.82171 16.6163L8.66143 6.41846C8.73055 6.14043 8.76426 5.85439 8.76171 5.56747C8.76171 5.49538 8.79171 5.46462 8.84143 5.46462H10.9414C11.0117 5.46462 11.0417 5.48483 11.0614 5.56747L14.2414 16.6338C14.2611 16.7156 14.2414 16.7675 14.1617 16.7675H12.5014C12.4217 16.7675 12.3711 16.7473 12.3514 16.6796L11.5311 13.5921H8.33143L8.33057 13.5903Z" fill="#FF7F18"/>
</svg>
