<svg width="24" height="24" viewBox="0 0 24 24" fill="none" xmlns="http://www.w3.org/2000/svg">
<path d="M0 0H24V24H0V0Z" fill="#F5DE19"/>
<path d="M16.122 18.75C16.3265 19.1654 16.6442 19.5145 17.0385 19.7571C17.4328 19.9998 17.8876 20.1261 18.3506 20.1214C19.2849 20.1214 19.8823 19.6543 19.8823 19.0071C19.8823 18.2357 19.2686 17.9597 18.24 17.5097L17.676 17.268C16.0474 16.5746 14.9674 15.7063 14.9674 13.8703C14.9674 12.1791 16.2532 10.8909 18.27 10.8909C18.9229 10.8437 19.5752 10.9898 20.1456 11.311C20.716 11.6322 21.1792 12.1142 21.4774 12.6969L19.7143 13.824C19.5995 13.5351 19.3995 13.2879 19.141 13.1152C18.8824 12.9425 18.5775 12.8525 18.2666 12.8571C18.131 12.8436 17.994 12.8584 17.8644 12.9007C17.7348 12.943 17.6154 13.0118 17.5139 13.1027C17.4124 13.1937 17.3309 13.3048 17.2747 13.429C17.2185 13.5532 17.1888 13.6877 17.1874 13.824C17.1874 14.5003 17.6066 14.7746 18.5743 15.1954L19.1383 15.4371C21.0549 16.2591 22.1383 17.0966 22.1383 18.9797C22.1383 21.0103 20.5432 22.1229 18.4012 22.1229C17.5666 22.176 16.7344 21.9865 16.0051 21.5773C15.2758 21.168 14.6806 20.5564 14.2912 19.8163L16.122 18.75ZM8.15488 18.9454C8.50888 19.5737 8.83116 20.1051 9.60602 20.1051C10.3466 20.1051 10.8146 19.8154 10.8146 18.6883V11.0194H13.0697V18.7183C13.0697 21.0531 11.6983 22.116 9.70202 22.116C8.99638 22.1546 8.29558 21.9787 7.69175 21.6116C7.08792 21.2444 6.60933 20.7031 6.31888 20.0589L8.15488 18.9454Z" fill="black"/>
</svg>
