<svg width="24" height="24" viewBox="0 0 24 24" fill="none" xmlns="http://www.w3.org/2000/svg">
<path fill-rule="evenodd" clip-rule="evenodd" d="M21.1505 16.6649L21.0673 16.8805C19.6501 19.6405 17.1385 21.3337 13.5563 21.4084C11.8817 21.443 10.2861 21.0132 9.24378 20.5461C6.9944 19.5354 5.10233 17.6611 4.06909 15.6586C2.58688 12.7879 2.31957 8.79456 5.4015 5.81194C5.44909 5.81194 5.02764 6.45869 5.07523 6.45869L4.9904 6.73469C2.76957 13.6877 9.61185 19.6463 16.2632 18.9648C17.8616 18.8009 19.9 17.9255 21.1505 16.6649Z" fill="#21609B"/>
<path fill-rule="evenodd" clip-rule="evenodd" d="M17.1255 13.7899C18.7989 13.8012 20.5468 13.0192 21.5819 11.9212C20.6763 14.2198 18.0543 15.6972 14.5383 15.2274C11.5941 14.8334 8.78965 11.8709 8.50082 8.90234C8.28958 6.74193 9.04247 5.45255 10.2832 3.88841C9.85206 4.70648 9.69089 5.33731 9.65075 5.73972C9.17944 10.4131 13.384 13.7652 17.1255 13.7899" fill="#21609B"/>
<path fill-rule="evenodd" clip-rule="evenodd" d="M21.4136 7.98517C21.1536 8.58186 19.6558 9.70862 18.9944 9.84952C16.3753 10.4075 14.698 9.16552 13.8193 7.75221C13.6887 7.54117 13.4473 6.96476 13.4041 6.81807C13.0633 5.65945 13.2199 3.90703 14.2364 3C13.9302 3.86255 13.8855 4.86434 14.0467 5.51566C14.1443 5.90938 14.4418 6.5969 14.7396 7.02931C15.2812 7.81697 15.6249 8.00834 16.3207 8.42669C16.6341 8.61497 16.9703 8.766 17.1156 8.80738C17.7754 9.00166 19.1684 9.51331 21.4138 7.98517" fill="#21609B"/>
</svg>
