<svg width="24" height="24" viewBox="0 0 24 24" fill="none" xmlns="http://www.w3.org/2000/svg">
<path d="M1.00027 1.02593H22.9997V22.9741H1.00027V1.02593Z" fill="#0C0824"/>
<path d="M1.00029 1.02593H22.9997V22.9741H1.00029V1.02593ZM0 24H24V0H0V24ZM16.1803 9.84615C15.39 9.84615 15.12 10.2567 15.12 10.5952C15.12 10.9644 15.3 11.2211 16.3603 11.7846C17.9306 12.5644 18.4174 13.3125 18.4174 14.4105C18.4174 16.0519 17.1977 16.9336 15.5477 16.9336C14.8396 16.9605 14.1358 16.8096 13.4974 16.4941C13.4271 16.4633 13.4177 16.4123 13.4177 16.3297V14.8202C13.4177 14.7174 13.4674 14.6866 13.5377 14.7385C14.1372 15.1338 14.835 15.3438 15.5477 15.3433C16.338 15.3433 16.668 15.0048 16.668 14.5433C16.668 14.1741 16.4383 13.8462 15.4277 13.3125C14.0074 12.6154 13.4177 11.9059 13.4177 10.7279C13.4177 9.40484 14.4274 8.30769 16.1777 8.30769C16.787 8.28086 17.3953 8.37858 17.9674 8.59517C18.0004 8.6171 18.027 8.64763 18.0447 8.68363C18.0623 8.71963 18.0702 8.7598 18.0677 8.8V10.2066C18.0677 10.2884 18.018 10.3402 17.9177 10.3095C17.389 9.99727 16.7877 9.83778 16.1777 9.84791L16.1803 9.84615ZM7.57971 11.0664C7.80943 11.0866 7.98943 11.0866 8.38971 11.0866C9.55971 11.0866 10.6594 10.6664 10.6594 9.0356C10.6594 7.73275 9.86914 7.07692 8.53971 7.07692C8.13943 7.07692 7.75971 7.09714 7.57971 7.10769V11.0664ZM5.79943 5.61582C5.79943 5.54374 5.93914 5.49275 6.01971 5.49275C6.87926 5.45672 7.73946 5.43972 8.59971 5.44176C11.37 5.44176 12.45 7.00044 12.45 8.99077C12.45 11.5956 10.6097 12.7138 8.35029 12.7138C7.97057 12.7138 7.84029 12.6936 7.57029 12.6936V16.6321C7.57029 16.7138 7.54029 16.7552 7.45029 16.7552H5.92029C5.84057 16.7552 5.80029 16.7244 5.80029 16.6321V5.62022L5.79943 5.61582Z" fill="#31C5F0"/>
</svg>
