<svg width="40" height="40" viewBox="0 0 40 40" fill="none" xmlns="http://www.w3.org/2000/svg">
<path d="M36.0938 8.32681H26.1133V10.7487H36.0938V8.32681ZM31.1719 16.6471C30 16.6471 29.0495 16.9889 28.3203 17.6725C27.5911 18.3561 27.1875 19.2838 27.1094 20.4557H35.0781C34.8438 17.9167 33.5417 16.6471 31.1719 16.6471ZM31.4844 28.0729C32.3047 28.0729 33.099 27.8646 33.8672 27.4479C34.6354 27.0312 35.1302 26.4648 35.3516 25.7487H39.668C38.3659 29.7461 35.5859 31.7448 31.3281 31.7448C28.5417 31.7448 26.3249 30.8854 24.6777 29.1667C23.0306 27.4479 22.207 25.1888 22.207 22.3893C22.207 19.681 23.0566 17.4316 24.7559 15.6413C26.4551 13.8509 28.6458 12.9557 31.3281 12.9557C33.125 12.9557 34.6908 13.3984 36.0254 14.2838C37.36 15.1693 38.3561 16.3346 39.0137 17.7799C39.6712 19.2253 40 20.8398 40 22.6237C40 22.845 39.987 23.151 39.9609 23.5417H27.1094C27.1094 24.987 27.4837 26.1035 28.2324 26.8913C28.9811 27.679 30.0651 28.0729 31.4844 28.0729ZM5.41016 27.0963H11.1914C13.8607 27.0963 15.1953 26.0091 15.1953 23.8346C15.1953 21.4909 13.8997 20.319 11.3086 20.319H5.41016V27.0963ZM5.41016 16.6081H10.8984C11.9141 16.6081 12.7181 16.3704 13.3105 15.8952C13.903 15.4199 14.1992 14.681 14.1992 13.6784C14.1992 11.8034 12.9622 10.8659 10.4883 10.8659H5.41016V16.6081ZM0 6.66666H11.6016C12.7344 6.66666 13.7435 6.7578 14.6289 6.94009C15.5143 7.12239 16.3379 7.43163 17.0996 7.86783C17.8613 8.30403 18.4473 8.93228 18.8574 9.75259C19.2676 10.5729 19.4727 11.5755 19.4727 12.7604C19.4727 15.1172 18.3529 16.8294 16.1133 17.8971C17.5977 18.3138 18.7174 19.0625 19.4727 20.1432C20.2279 21.2239 20.6055 22.5521 20.6055 24.1276C20.6055 25.1042 20.446 25.9928 20.127 26.7936C19.8079 27.5944 19.3783 28.2682 18.8379 28.8151C18.2975 29.362 17.6562 29.8242 16.9141 30.2018C16.1719 30.5794 15.3841 30.8529 14.5508 31.0221C13.7174 31.1914 12.8451 31.276 11.9336 31.276H0V6.66666Z" fill="#A9B5CD"/>
</svg>
