<svg width="40" height="40" viewBox="0 0 40 40" fill="none" xmlns="http://www.w3.org/2000/svg">
<path d="M11.7153 35H5.49555V14.9705H11.7153V35ZM8.60209 12.2383C6.61321 12.2383 5 10.591 5 8.60209C5 7.64676 5.3795 6.73055 6.05503 6.05503C6.73055 5.3795 7.64676 5 8.60209 5C9.55742 5 10.4736 5.3795 11.1492 6.05503C11.8247 6.73055 12.2042 7.64676 12.2042 8.60209C12.2042 10.591 10.5903 12.2383 8.60209 12.2383ZM34.994 35H28.7876V25.2498C28.7876 22.9261 28.7407 19.9461 25.5538 19.9461C22.32 19.9461 21.8245 22.4707 21.8245 25.0824V35H15.6114V14.9705H21.5767V17.7027H21.6638C22.4941 16.129 24.5225 14.4683 27.5487 14.4683C33.8435 14.4683 35.0007 18.6135 35.0007 23.9975V35H34.994Z" fill="#A9B5CD"/>
</svg>
