<svg width="24" height="24" viewBox="0 0 24 24" fill="none" xmlns="http://www.w3.org/2000/svg">
<path d="M11.77 10.804H9.956V7.766H12.108C13.278 7.766 13.942 8.288 13.942 9.232C13.942 10.24 13.169 10.804 11.768 10.804H11.77ZM12.094 12.01H9.957V15.358H12.188C13.647 15.358 14.42 14.773 14.42 13.673C14.42 12.573 13.625 12.01 12.094 12.01ZM24 10.954V12.172C22.872 12.28 22.183 13.116 21.774 14.44C21.367 15.759 21.311 17.377 21.354 18.626C21.399 19.926 20.386 21.126 19.017 21.126H4.985C3.615 21.126 2.602 19.926 2.648 18.626C2.691 17.377 2.635 15.759 2.228 14.44C1.818 13.116 1.128 12.28 0 12.172V10.954C1.128 10.846 1.819 10.01 2.227 8.686C2.635 7.367 2.691 5.749 2.647 4.5C2.602 3.2 3.615 2 4.985 2H19.017C20.387 2 21.399 3.2 21.354 4.5C21.311 5.749 21.367 7.367 21.774 8.686C22.183 10.01 22.872 10.846 24 10.954ZM16.073 13.771C16.073 12.417 15.12 11.438 13.705 11.283V11.226C14.745 11.057 15.561 10.091 15.561 9.013C15.561 7.476 14.348 6.475 12.499 6.475H8.339V16.647H12.52C14.738 16.647 16.073 15.561 16.073 13.771Z" fill="url(#paint0_linear_263_87)"/>
<defs>
<linearGradient id="paint0_linear_263_87" x1="-3.62339e-07" y1="-0.435993" x2="24" y2="23.064" gradientUnits="userSpaceOnUse">
<stop stop-color="#00C6FF"/>
<stop offset="0.9998" stop-color="#9535EE"/>
<stop offset="0.9999" stop-color="#9634EE"/>
<stop offset="1" stop-color="#9733EE"/>
</linearGradient>
</defs>
</svg>
