<svg width="24" height="24" viewBox="0 0 24 24" fill="none" xmlns="http://www.w3.org/2000/svg">
<path d="M8.25383 2H11.4946V8.48164H8.25387C3.98005 8.31457 3.93688 2.17547 8.25383 2ZM8.25383 15.2405H11.4946V8.75887H8.25387C3.93692 8.93433 3.98005 15.0734 8.25383 15.2405ZM15.0127 2H11.7718V8.48164H15.0127C19.344 8.24984 19.29 2.1323 15.0127 2ZM11.4946 18.7586V15.5177H8.25387C5.60926 15.5177 3.93692 18.6184 5.77618 20.8454C7.52977 23.0528 11.4946 21.9523 11.4946 18.7586ZM18.2601 11.9997C18.2601 9.50906 15.5454 7.94402 13.3853 9.18933C11.2253 10.4346 11.2252 13.5648 13.3853 14.8101C15.5454 16.0554 18.2601 14.4903 18.2601 11.9997Z" fill="url(#paint0_linear_263_91)"/>
<defs>
<linearGradient id="paint0_linear_263_91" x1="1.6656" y1="2" x2="21.2489" y2="22" gradientUnits="userSpaceOnUse">
<stop stop-color="#00C6FF"/>
<stop offset="0.9998" stop-color="#9535EE"/>
<stop offset="0.9999" stop-color="#9634EE"/>
<stop offset="1" stop-color="#9733EE"/>
</linearGradient>
</defs>
</svg>
