<svg width="24" height="24" viewBox="0 0 24 24" fill="none" xmlns="http://www.w3.org/2000/svg">
<path d="M10.775 10.6917C10.6917 10.4333 10.6167 10.1833 10.5333 9.925C10.45 9.66666 10.375 9.425 10.3083 9.18333C10.2417 8.95 10.1833 8.73333 10.125 8.53333H10.1083C10.0333 8.89166 9.94167 9.25 9.825 9.60833C9.7 10.0083 9.575 10.425 9.44167 10.8417C9.325 11.2667 9.2 11.6583 9.075 12.0083H11.1917C11.1417 11.8325 11.075 11.625 11 11.4075C10.925 11.1833 10.85 10.9417 10.775 10.6917V10.6917ZM18.4583 2H5.54167C3.58333 2 2 3.58333 2 5.54166V17.9583C2 19.9167 3.58333 21.5 5.54167 21.5H18.4583C20.4167 21.5 22 19.9167 22 17.9583V5.54166C22 3.58333 20.4167 2 18.4583 2ZM14.25 15.775H12.5075C12.45 15.7833 12.3917 15.7417 12.375 15.6833L11.6917 13.7H8.59167L7.95833 15.6583C7.94167 15.7333 7.875 15.7833 7.8 15.7758H6.23333C6.14167 15.7758 6.11667 15.725 6.14167 15.6258L8.825 7.9C8.85 7.81666 8.875 7.725 8.90833 7.625C8.94167 7.45 8.95833 7.26666 8.95833 7.08333C8.95 7.04166 8.98333 7 9.025 6.99166H11.1833C11.25 6.99166 11.2833 7.01666 11.2917 7.05833L14.3333 15.6417C14.3583 15.7325 14.3333 15.775 14.25 15.775V15.775ZM17.0833 15.65C17.0833 15.7417 17.0508 15.7833 16.9758 15.7833H15.3417C15.2583 15.7833 15.2167 15.7325 15.2167 15.65V9.23333C15.2167 9.15 15.2508 9.11666 15.3258 9.11666H16.9758C17.0508 9.11666 17.0833 9.15833 17.0833 9.23333V15.65V15.65ZM16.9092 8.125C16.8108 8.22495 16.6921 8.30268 16.5611 8.35299C16.4302 8.4033 16.29 8.42501 16.15 8.41666C15.875 8.425 15.6083 8.31666 15.4075 8.125C15.2166 7.91624 15.1149 7.64108 15.1242 7.35833C15.1158 7.075 15.2242 6.80833 15.4233 6.61666C15.625 6.425 15.8917 6.325 16.1667 6.325C16.4925 6.325 16.7408 6.425 16.925 6.61666C17.1083 6.81666 17.2083 7.08333 17.2 7.35833C17.2083 7.64166 17.1083 7.91666 16.9092 8.125V8.125Z" fill="url(#paint0_linear_263_75)"/>
<defs>
<linearGradient id="paint0_linear_263_75" x1="2" y1="1.74999" x2="22" y2="21.75" gradientUnits="userSpaceOnUse">
<stop stop-color="#00C6FF"/>
<stop offset="0.9998" stop-color="#9535EE"/>
<stop offset="0.9999" stop-color="#9634EE"/>
<stop offset="1" stop-color="#9733EE"/>
</linearGradient>
</defs>
</svg>
