<svg width="24" height="24" viewBox="0 0 24 24" fill="none" xmlns="http://www.w3.org/2000/svg">
<path d="M3.27095 6.52414C1.49929 9.06912 1.71929 12.3791 3.07345 15.0816C3.10428 15.1474 3.13845 15.2099 3.17178 15.2724C3.19095 15.3158 3.21261 15.3558 3.23595 15.3974C3.24678 15.4199 3.26178 15.4441 3.27511 15.4658C3.29678 15.5091 3.32011 15.5508 3.34261 15.5924L3.47344 15.8141C3.49844 15.8549 3.52094 15.8949 3.54844 15.9357C3.59511 16.0141 3.64844 16.0916 3.69678 16.1699C3.71844 16.2032 3.73844 16.2349 3.76261 16.2674C3.84341 16.3946 3.9296 16.5184 4.02094 16.6382C4.08594 16.7274 4.15094 16.8141 4.22094 16.9007C4.24344 16.9324 4.26927 16.9641 4.29261 16.9966L4.47594 17.2207C4.49927 17.2457 4.52177 17.2766 4.54594 17.3032C4.6276 17.4016 4.71427 17.4974 4.80094 17.5949L4.8051 17.5999C4.91092 17.7334 5.02954 17.8562 5.15927 17.9666C5.22593 18.0357 5.2926 18.1041 5.36343 18.1707L5.4476 18.2516C5.5401 18.3391 5.63343 18.4257 5.73093 18.5091C5.7326 18.5091 5.73343 18.5107 5.7351 18.5116L5.7826 18.5532C5.8676 18.6274 5.95343 18.7016 6.04093 18.7699L6.14509 18.8574C6.21593 18.9141 6.29009 18.9682 6.36176 19.0241L6.47593 19.1116C6.55343 19.1699 6.63592 19.2274 6.71509 19.2841C6.74426 19.3049 6.77342 19.3257 6.80342 19.3449L6.82842 19.3641L7.06176 19.5182L7.16175 19.5849C7.28509 19.6632 7.40675 19.7382 7.52842 19.8116C7.56259 19.8282 7.59842 19.8482 7.63092 19.8682C7.72092 19.9199 7.81425 19.9724 7.90508 20.0207C7.95508 20.0491 8.00675 20.0732 8.05842 20.0991C8.12092 20.1341 8.18592 20.1682 8.25342 20.2032C8.26953 20.2081 8.28516 20.2146 8.30008 20.2224C8.32758 20.2349 8.35341 20.2482 8.38008 20.2616C8.48008 20.3116 8.58425 20.3599 8.69258 20.4074C8.71258 20.4157 8.73425 20.4241 8.75591 20.4357C8.87591 20.4882 8.99674 20.5382 9.12091 20.5874C9.14924 20.5957 9.17924 20.6099 9.20841 20.6207C9.32091 20.6632 9.43674 20.7066 9.55091 20.7474L9.59257 20.7624C9.72091 20.8057 9.84674 20.8474 9.97591 20.8874C10.0059 20.8957 10.0367 20.9066 10.0684 20.9149C10.2017 20.9549 10.3301 21.0024 10.4634 21.0291C19.0242 22.589 21.5117 15.8816 21.5117 15.8816C19.4217 18.6032 15.7134 19.3207 12.2001 18.5224C12.0701 18.4924 11.9401 18.4507 11.8084 18.4124C11.6498 18.3653 11.4923 18.3148 11.3359 18.2607L11.2842 18.2407C11.1709 18.2024 11.0617 18.1599 10.9509 18.1174C10.9208 18.1052 10.8902 18.0941 10.8592 18.0841C10.7359 18.0341 10.6176 17.9832 10.4984 17.9307C10.4726 17.9224 10.4509 17.9107 10.4251 17.9007C10.3241 17.8544 10.2236 17.8072 10.1234 17.7591C10.0934 17.7458 10.0639 17.7313 10.0351 17.7157C9.95674 17.6791 9.87841 17.6366 9.80174 17.5966C9.74909 17.5713 9.69713 17.5446 9.64591 17.5166C9.55091 17.4666 9.45674 17.4124 9.36258 17.3607C9.33424 17.3407 9.30174 17.3241 9.26924 17.3057C9.14609 17.2327 9.02413 17.1577 8.90341 17.0807C8.86992 17.0602 8.83712 17.0385 8.80508 17.0157C8.71664 16.961 8.62993 16.9034 8.54508 16.8432C8.51591 16.8241 8.48925 16.8032 8.45925 16.7824C8.37619 16.7251 8.29423 16.6662 8.21342 16.6057C8.17842 16.5774 8.14092 16.5507 8.10342 16.5224C8.03008 16.4641 7.95592 16.4099 7.88258 16.3491L7.78425 16.2699C7.6896 16.1941 7.59653 16.1163 7.50509 16.0366C7.49564 16.027 7.48532 16.0184 7.47425 16.0107L7.18509 15.7474L7.10176 15.6691C7.03342 15.5991 6.96342 15.5324 6.89342 15.4641L6.81176 15.3808C6.72373 15.2932 6.63787 15.2034 6.55426 15.1116L6.54176 15.0983C6.45343 15.0016 6.36676 14.9024 6.28093 14.8024C6.25843 14.7774 6.23676 14.7491 6.21426 14.7216L6.0251 14.4908C5.929 14.3673 5.83455 14.2426 5.74176 14.1166C3.79344 11.4574 3.08845 7.7858 4.6476 4.77498L3.27095 6.52414ZM8.76675 4.38082C7.48342 6.22331 7.55509 8.68829 8.55508 10.6374C8.72033 10.9654 8.90916 11.281 9.12008 11.5816C9.31174 11.8566 9.52341 12.1824 9.78091 12.4049C9.87007 12.5066 9.96674 12.6049 10.0676 12.7049L10.1426 12.7799C10.2376 12.8716 10.3359 12.9608 10.4342 13.0508L10.4476 13.0616C10.56 13.1597 10.675 13.2547 10.7926 13.3466C10.8209 13.3658 10.8451 13.3883 10.8726 13.4074C10.9892 13.4974 11.1076 13.5841 11.2292 13.6708L11.2417 13.6783C11.2934 13.7158 11.3484 13.7499 11.4067 13.7866C11.4301 13.8016 11.4567 13.8216 11.4817 13.8366C11.5701 13.8933 11.6567 13.9466 11.7467 14.0008C11.7609 14.0066 11.7734 14.0141 11.7867 14.0199C11.8617 14.0658 11.9434 14.1099 12.0217 14.1508C12.0492 14.1674 12.0759 14.1799 12.1051 14.1958C12.1601 14.2233 12.2151 14.2524 12.2692 14.2808L12.2959 14.2924C12.4084 14.3483 12.5234 14.3999 12.6359 14.4508C12.6642 14.4624 12.6884 14.4716 12.7126 14.4833C12.8051 14.5233 12.8992 14.5616 12.9926 14.5974C13.0342 14.6116 13.0734 14.6283 13.1126 14.6408C13.1976 14.6724 13.2876 14.7016 13.3709 14.7308L13.4876 14.7683C13.61 14.8058 13.7334 14.8549 13.8617 14.8766C20.47 15.9707 22 10.8808 22 10.8808C20.6225 12.8641 17.9567 13.8083 15.1159 13.0708C14.9901 13.0383 14.8654 13.0022 14.7417 12.9624C14.7017 12.9508 14.6667 12.9383 14.6284 12.9266C14.5417 12.8966 14.4525 12.8683 14.3684 12.8358L14.2484 12.7908C14.1542 12.7533 14.0592 12.7183 13.9684 12.6783C13.94 12.6658 13.9142 12.6574 13.8925 12.6449C13.7759 12.5924 13.6584 12.5408 13.5442 12.4849L13.3726 12.3958L13.2734 12.3458C13.1987 12.3061 13.125 12.2644 13.0526 12.2208C13.0348 12.212 13.0175 12.2023 13.0009 12.1916C12.9126 12.1366 12.8201 12.0833 12.7359 12.0266C12.7076 12.0108 12.6817 11.9916 12.6551 11.9749L12.4817 11.8616C12.3617 11.7783 12.2442 11.6883 12.1251 11.6008C12.0984 11.5766 12.0726 11.5566 12.0467 11.5349C10.7976 10.5533 9.81257 9.20996 9.34508 7.6908C8.85341 6.10998 8.96174 4.33832 9.81174 2.89916L8.76675 4.38082ZM13.3884 2.77666C12.6309 3.88832 12.5584 5.26831 13.0801 6.49331C13.6342 7.7958 14.7667 8.81829 16.0867 9.30162C16.1409 9.32246 16.1934 9.33996 16.25 9.35996L16.3234 9.38246C16.4 9.40746 16.4775 9.43496 16.5567 9.45246C20.2075 10.1566 21.1958 7.57747 21.4617 7.19914C20.5925 8.44746 19.135 8.74663 17.3467 8.31163C17.201 8.27521 17.0574 8.2307 16.9167 8.1783C16.7414 8.11683 16.5695 8.04617 16.4017 7.96663C16.084 7.81297 15.782 7.62877 15.5 7.41663C13.8984 6.20247 12.9059 3.88666 13.9509 2" fill="url(#paint0_linear_263_89)"/>
<defs>
<linearGradient id="paint0_linear_263_89" x1="2.00011" y1="1.6325" x2="22" y2="21.6324" gradientUnits="userSpaceOnUse">
<stop stop-color="#00C6FF"/>
<stop offset="0.9998" stop-color="#9535EE"/>
<stop offset="0.9999" stop-color="#9634EE"/>
<stop offset="1" stop-color="#9733EE"/>
</linearGradient>
</defs>
</svg>
