<svg width="24" height="24" viewBox="0 0 24 24" fill="none" xmlns="http://www.w3.org/2000/svg">
<path d="M10.2083 8.76666C9.9 8.64166 9.56667 8.59166 9.225 8.6C9.00833 8.6 8.81667 8.6 8.65833 8.60833C8.49167 8.6 8.375 8.60833 8.31667 8.61666V11.4167C8.43333 11.425 8.54167 11.4333 8.64167 11.4333H9.08333C9.40833 11.4333 9.73333 11.3833 10.0417 11.2833C10.3083 11.2083 10.5417 11.05 10.725 10.8417C10.9 10.6333 10.9833 10.35 10.9833 9.98333C10.9917 9.725 10.925 9.46666 10.7917 9.24166C10.6527 9.02529 10.4484 8.85889 10.2083 8.76666ZM18.4583 2H5.54167C3.58333 2 2 3.58333 2 5.54166V17.9575C2 19.9158 3.58333 21.4992 5.54167 21.4992H18.4583C20.4167 21.4992 22 19.9158 22 17.9575V5.54166C22 3.58333 20.4167 2 18.4583 2ZM12.2992 11.7083C11.9667 12.175 11.5 12.525 10.9583 12.725C10.3917 12.9333 9.76667 13.0083 9.08333 13.0083C8.88333 13.0083 8.75 13.0083 8.66667 13C8.58333 12.9917 8.46667 12.9917 8.30833 12.9917V15.6658C8.31667 15.7242 8.275 15.775 8.21667 15.7833H6.6C6.53333 15.7833 6.5 15.7492 6.5 15.6742V7.1C6.5 7.04166 6.525 7.00833 6.58333 7.00833C6.725 7.00833 6.85833 7.00833 7.05 7C7.25 6.99166 7.45833 6.99166 7.68333 6.98333C7.90833 6.975 8.15 6.975 8.40833 6.96666C8.66667 6.95833 8.91667 6.95833 9.16667 6.95833C9.85 6.95833 10.4167 7.04166 10.8833 7.21666C11.3 7.35833 11.6833 7.59166 12 7.9C12.2667 8.16666 12.475 8.49166 12.6083 8.85C12.7325 9.2 12.7992 9.55833 12.7992 9.93333C12.8 10.65 12.6333 11.2417 12.2992 11.7083V11.7083ZM18.2083 14.95C17.975 15.2833 17.6492 15.5408 17.275 15.6925C16.8667 15.8667 16.3667 15.9575 15.7658 15.9575C15.3833 15.9575 15.0075 15.925 14.6333 15.85C14.3417 15.7992 14.05 15.7083 13.7833 15.5833C13.725 15.5508 13.6825 15.4925 13.6908 15.4258V13.9758C13.6908 13.9517 13.7 13.9175 13.725 13.9008C13.7492 13.8842 13.775 13.8925 13.8 13.9092C14.125 14.1008 14.4667 14.235 14.8333 14.3175C15.1492 14.4008 15.4825 14.4425 15.8167 14.4425C16.1333 14.4425 16.3583 14.4 16.5083 14.325C16.6417 14.2667 16.7333 14.125 16.7333 13.975C16.7333 13.8575 16.6667 13.75 16.5333 13.6417C16.4 13.5342 16.1258 13.4092 15.7175 13.2492C15.2925 13.0992 14.9017 12.8992 14.5342 12.65C14.2734 12.4632 14.0569 12.2214 13.9 11.9417C13.7676 11.678 13.702 11.3858 13.7092 11.0908C13.7092 10.7325 13.8092 10.3908 13.9933 10.0825C14.2017 9.74916 14.5092 9.4825 14.8675 9.31583C15.2583 9.11666 15.75 9.025 16.3417 9.025C16.6833 9.025 17.0333 9.05 17.375 9.1C17.625 9.13333 17.8667 9.2 18.0917 9.29166C18.1242 9.3 18.1583 9.33333 18.175 9.36666C18.1833 9.4 18.1917 9.43333 18.1917 9.46666V10.825C18.1917 10.8583 18.175 10.8917 18.15 10.9083C18.075 10.925 18.0333 10.925 18 10.9083C17.75 10.775 17.4833 10.6833 17.2 10.625C16.8917 10.5583 16.5833 10.5167 16.2667 10.5167C16.1 10.5083 15.925 10.5333 15.7658 10.575C15.6583 10.6 15.5658 10.6583 15.5075 10.7417C15.4658 10.8083 15.4408 10.8917 15.4408 10.9667C15.4408 11.0417 15.4742 11.1167 15.525 11.1833C15.6 11.275 15.6992 11.35 15.8083 11.4083C15.9992 11.5083 16.2 11.6 16.3992 11.6833C16.85 11.8333 17.2833 12.0417 17.6833 12.2917C17.9583 12.4658 18.1833 12.7 18.3408 12.9833C18.4742 13.2483 18.5408 13.5417 18.5325 13.8408C18.5417 14.2333 18.425 14.6242 18.2083 14.95V14.95Z" fill="url(#paint0_linear_263_77)"/>
<defs>
<linearGradient id="paint0_linear_263_77" x1="2" y1="1.74999" x2="22" y2="21.75" gradientUnits="userSpaceOnUse">
<stop stop-color="#00C6FF"/>
<stop offset="0.9998" stop-color="#9535EE"/>
<stop offset="0.9999" stop-color="#9634EE"/>
<stop offset="1" stop-color="#9733EE"/>
</linearGradient>
</defs>
</svg>
