<svg width="24" height="24" viewBox="0 0 24 24" fill="none" xmlns="http://www.w3.org/2000/svg">
<g clip-path="url(#clip0_263_85)">
<path d="M11.3181 16.608C11.3069 16.6305 11.2956 16.6485 11.3181 16.608V16.608ZM20.6592 13.3458C19.9048 13.3458 19.1609 13.5183 18.4844 13.852C18.2632 13.4058 18.0345 13.0159 17.997 12.7234C17.952 12.3822 17.9032 12.1797 17.9557 11.7747C18.0082 11.3698 18.2445 10.7961 18.2407 10.7548C18.237 10.7136 18.1882 10.5074 17.7045 10.5036C17.2208 10.4999 16.8046 10.5973 16.7559 10.7248C16.6703 10.9578 16.6038 11.1973 16.5571 11.441C16.4709 11.8797 15.5905 13.4471 15.0918 14.2645C14.9268 13.9458 14.7881 13.6645 14.7581 13.4396C14.7131 13.0983 14.6643 12.8959 14.7168 12.4909C14.7693 12.0859 15.0055 11.5123 15.0018 11.471C14.998 11.4298 14.9493 11.2235 14.4663 11.2198C13.9834 11.216 13.5664 11.3135 13.5177 11.441C13.4689 11.5685 13.4164 11.8685 13.3189 12.1572C13.2215 12.4459 12.0478 15.0557 11.7411 15.7343C11.5836 16.0793 11.4486 16.3568 11.3511 16.5443C11.3361 16.5743 11.3249 16.593 11.3174 16.608C11.3286 16.5893 11.3361 16.5705 11.3361 16.578C11.2537 16.7392 11.2049 16.8292 11.2049 16.8292V16.833C11.1412 16.953 11.0699 17.0617 11.0362 17.0617C11.0137 17.0617 10.9649 16.7467 11.0474 16.3155C11.2237 15.4081 11.6399 13.9983 11.6361 13.9495C11.6324 13.9233 11.7149 13.6795 11.3624 13.5483C11.0212 13.4246 10.8974 13.6308 10.8674 13.6308C10.8374 13.6308 10.8149 13.7058 10.8149 13.7058C10.8149 13.7058 11.1937 12.1159 10.0875 12.1159C9.39758 12.1159 8.43768 12.8734 7.96597 13.5596C7.66975 13.7208 7.02857 14.0695 6.35363 14.4407L5.57746 14.8682C5.55871 14.8494 5.54371 14.8307 5.52496 14.8119C4.1826 13.3796 1.70484 12.3672 1.80983 10.4436C1.84733 9.74243 2.09105 7.90136 6.57486 5.66658C10.2495 3.83676 13.187 4.33921 13.6932 5.4566C14.4206 7.05019 12.1221 10.0161 8.30644 10.4436C6.85158 10.6048 6.08741 10.0424 5.89618 9.83242C5.69745 9.61119 5.66745 9.59994 5.59246 9.64119C5.46872 9.70868 5.54746 9.90366 5.59246 10.0199C5.70495 10.3161 6.17365 10.8411 6.97232 11.1035C7.6735 11.3323 9.37883 11.4598 11.4404 10.6611C13.7569 9.76867 15.5605 7.28267 15.031 5.20162C14.4926 3.08683 10.9859 2.39315 7.6705 3.57053C5.69445 4.27171 3.55791 5.37411 2.02131 6.81022C0.195237 8.52005 -0.0964838 10.0086 0.0235044 10.6311C0.450962 12.8396 3.49491 14.2795 4.71279 15.3444L4.54406 15.4381C3.93287 15.7418 1.6126 16.9567 1.03141 18.2391C0.37522 19.6939 1.14014 20.7363 1.64185 20.8788C3.20919 21.3138 4.81328 20.5301 5.6757 19.244C6.53811 17.9579 6.43312 16.278 6.03566 15.5131C6.03191 15.5019 6.02441 15.4944 6.02066 15.4831C6.4706 15.2166 6.92435 14.9566 7.38178 14.7032C7.2318 15.1081 7.12306 15.5956 7.06681 16.3005C6.99932 17.1255 7.34054 18.1941 7.78299 18.6141C7.97797 18.7978 8.21345 18.8015 8.36043 18.8015C8.87788 18.8015 9.11036 18.3741 9.36909 17.8641C9.6878 17.2417 9.96903 16.518 9.96903 16.518C9.96903 16.518 9.61656 18.4753 10.5802 18.4753C10.9327 18.4753 11.2851 18.0216 11.4426 17.7891V17.7929C11.4426 17.7929 11.4501 17.7779 11.4689 17.7479C11.5064 17.6916 11.5251 17.6579 11.5251 17.6579V17.6466C11.6676 17.4029 11.9788 16.8442 12.4475 15.9218C13.055 14.7294 13.6354 13.2408 13.6354 13.2408C13.6917 13.5678 13.7697 13.891 13.8679 14.2082C13.9729 14.5645 14.1941 14.9544 14.3703 15.3331C14.2279 15.5281 14.1416 15.6406 14.1416 15.6406C14.1416 15.6436 14.1431 15.6458 14.1454 15.6481C14.0329 15.7981 13.9054 15.9593 13.7742 16.1168C13.2949 16.6867 12.7243 17.3392 12.6493 17.5267C12.5593 17.7479 12.5818 17.9129 12.7543 18.0404C12.8817 18.1379 13.1067 18.1528 13.3429 18.1341C13.7742 18.1041 14.0779 17.9991 14.2241 17.9316C14.4938 17.835 14.7488 17.7012 14.9815 17.5342C15.4502 17.1892 15.7352 16.6942 15.709 16.0418C15.694 15.6818 15.5777 15.3219 15.4352 14.9844C15.4765 14.9244 15.5215 14.8607 15.5627 14.7969C16.0507 14.0689 16.4903 13.3096 16.8788 12.5239C16.9351 12.8509 17.0123 13.1741 17.1113 13.4913C17.2013 13.795 17.3775 14.1287 17.5388 14.455C16.8413 15.0212 16.4101 15.6773 16.2609 16.1086C15.9834 16.9072 16.2009 17.2672 16.6096 17.3497C16.7934 17.3872 17.0558 17.3009 17.2508 17.2184C17.5403 17.1217 17.8133 16.9815 18.06 16.8022C18.5287 16.4573 18.9824 15.9736 18.9516 15.3174C18.9404 15.0212 18.8579 14.7249 18.7492 14.44C19.3379 14.1925 20.1028 14.0575 21.0777 14.17C23.1655 14.4137 23.5742 15.7186 23.4954 16.2623C23.4167 16.806 22.978 17.1097 22.8318 17.1997C22.6855 17.2897 22.6405 17.3234 22.6518 17.3909C22.6705 17.4884 22.738 17.4847 22.8618 17.4622C23.0342 17.4322 23.9567 17.0197 23.9979 16.0111C24.0579 14.7362 22.8318 13.3338 20.6607 13.3451L20.6592 13.3458ZM4.56656 18.7715C3.87663 19.5252 2.90997 19.8102 2.49376 19.5702C2.04756 19.3107 2.22379 18.2016 3.0742 17.3984C3.59165 16.911 4.25909 16.461 4.70154 16.1835C4.80278 16.1235 4.94902 16.0336 5.129 15.9248C5.14363 15.9154 5.15864 15.9067 5.174 15.8986C5.20774 15.8761 5.24524 15.8573 5.28274 15.8348C5.59321 16.9747 5.29399 17.9796 4.56656 18.7708V18.7715ZM9.60456 15.3444C9.36459 15.9331 8.85914 17.4329 8.55092 17.3542C8.28844 17.2867 8.12721 16.143 8.49842 15.0182C8.6859 14.452 9.08336 13.777 9.31959 13.5146C9.6983 13.0908 10.1145 12.9559 10.212 13.1246C10.3432 13.3458 9.75455 14.9769 9.60456 15.3444ZM13.7667 17.3317C13.6654 17.3842 13.5717 17.4179 13.5267 17.3917C13.4929 17.3729 13.5679 17.3017 13.5679 17.3017C13.5679 17.3017 14.0891 16.743 14.2954 16.488C14.4153 16.338 14.5541 16.1618 14.7041 15.9668C14.7041 15.9856 14.7078 16.0043 14.7078 16.0268C14.7033 16.698 14.0584 17.1517 13.7659 17.3317H13.7667ZM16.9763 16.6005C16.9013 16.548 16.9126 16.3718 17.1638 15.8243C17.2613 15.6106 17.4863 15.2506 17.8762 14.9057C17.9205 15.0362 17.9445 15.1726 17.9475 15.3106C17.9437 16.1543 17.3401 16.4693 16.9763 16.6005V16.6005Z" fill="url(#paint0_linear_263_85)"/>
</g>
<defs>
<linearGradient id="paint0_linear_263_85" x1="0.000259949" y1="0.000133487" x2="23.9979" y2="23.9978" gradientUnits="userSpaceOnUse">
<stop stop-color="#00C6FF"/>
<stop offset="0.9998" stop-color="#9535EE"/>
<stop offset="0.9999" stop-color="#9634EE"/>
<stop offset="1" stop-color="#9733EE"/>
</linearGradient>
<clipPath id="clip0_263_85">
<rect width="24" height="24" fill="white"/>
</clipPath>
</defs>
</svg>
