<svg width="24" height="24" viewBox="0 0 24 24" fill="none" xmlns="http://www.w3.org/2000/svg">
<path d="M12.0008 3L6.29874 3.81393L2 9.83322L12.0008 21.4995L22 9.83322L17.7013 3.81393L12.0008 3ZM10.0941 4.79441L7.63192 7.60849L7.803 5.12299L10.0941 4.79441V4.79441ZM13.9075 4.79441L16.1985 5.12149L16.3696 7.60849L13.9067 4.79441H13.9075ZM12.0008 4.9067L15.6159 9.03663H8.38556L12.0008 4.9067ZM6.19399 6.5549L6.0214 9.03663H4.42143L6.19399 6.5549ZM17.8075 6.55641L19.5801 9.03663H17.9801L17.8075 6.55641V6.55641ZM4.59628 10.5439H6.26031L8.58904 15.2029L4.59703 10.5439H4.59628ZM7.94544 10.5439H16.0561L12.0008 18.656L7.94619 10.5439H7.94544ZM17.7412 10.5439H19.4045L15.4125 15.2029L17.7412 10.5439V10.5439Z" fill="url(#paint0_linear_263_83)"/>
<defs>
<linearGradient id="paint0_linear_263_83" x1="0.444996" y1="0.997839" x2="24.5614" y2="22.0997" gradientUnits="userSpaceOnUse">
<stop stop-color="#00C6FF"/>
<stop offset="0.9998" stop-color="#9535EE"/>
<stop offset="0.9999" stop-color="#9634EE"/>
<stop offset="1" stop-color="#9733EE"/>
</linearGradient>
</defs>
</svg>
